<svg width="22" height="22" viewBox="0 0 22 22" fill="none" xmlns="http://www.w3.org/2000/svg">
<path d="M20.1741 5.81243C20.7028 5.28385 20.9999 4.56689 21 3.81927C21.0001 3.07165 20.7032 2.35461 20.1746 1.8259C19.646 1.29718 18.9291 1.0001 18.1814 1.00001C17.4338 0.999915 16.7168 1.29682 16.1881 1.8254L2.84196 15.1745C2.60978 15.406 2.43807 15.691 2.34195 16.0045L1.02094 20.3566C0.995098 20.443 0.993146 20.5349 1.01529 20.6224C1.03744 20.7099 1.08286 20.7898 1.14674 20.8536C1.21062 20.9173 1.29057 20.9626 1.3781 20.9846C1.46564 21.0066 1.55751 21.0045 1.64395 20.9786L5.99698 19.6585C6.31016 19.5633 6.59516 19.3926 6.82699 19.1615L20.1741 5.81243Z" stroke="white" stroke-width="2" stroke-linecap="round" stroke-linejoin="round"/>
</svg>
