<svg xmlns="http://www.w3.org/2000/svg" width="600" height="200" viewBox="0 0 600 200"><g transform="translate(40,30) scale(1.2)"><ellipse cx="45" cy="35" fill="#9D4EDD" rx="22" ry="15"/><path fill="#B983FF" d="M55 35 Q65 30, 60 45 Q55 50, 50 45 Q53 40, 55 35 Z"/><path fill="none" stroke="#9D4EDD" stroke-linecap="round" stroke-width="6" d="M60 40 Q80 10, 60 5 Q45 0, 45 15 Q45 25, 60 40"/><circle cx="60" cy="5" r="9" fill="#9D4EDD"/><ellipse cx="63" cy="3" fill="#fff" rx="1.7" ry="1.2"/><ellipse cx="63.5" cy="3" fill="#222" rx=".6" ry=".4"/><path fill="#FBB13C" stroke="#222" stroke-width=".8" d="M69 7 Q75 10, 68 13 Q66 12, 67 9 Q68 7, 69 7 Z"/><path fill="none" stroke="#222" stroke-width="1" d="M69 7 Q77 13, 68 13"/><line x1="55" x2="55" y1="50" y2="80" stroke="#9D4EDD" stroke-width="3"/><line x1="55" x2="52" y1="80" y2="95" stroke="#9D4EDD" stroke-width="3"/><line x1="55" x2="58" y1="80" y2="95" stroke="#9D4EDD" stroke-width="3"/><path fill="none" stroke="#9D4EDD" stroke-width="2" d="M48 55 Q43 65, 54 80"/></g><g font-family="Outfit, sans-serif" font-size="48" font-weight="700"><text x="150" y="120" fill="#9D4EDD">F</text><text x="190" y="120" fill="#FFF">L</text><text x="230" y="120" fill="#9D4EDD">A</text><text x="270" y="120" fill="#FFF">M</text><text x="330" y="120" fill="#9D4EDD">I</text><text x="360" y="120" fill="#FFF">N</text><text x="420" y="120" fill="#9D4EDD">G</text><text x="470" y="120" fill="#FFF">O</text></g></svg>