<?xml version="1.0" encoding="UTF-8" standalone="no"?>
<svg width="600" height="200" viewBox="0 0 600 200" xmlns="http://www.w3.org/2000/svg">

  <!-- Flamant stylisé (vectoriel simplifié) -->
  <g transform="translate(40,30) scale(1.2)">
    <path d="M30 10 C 45 0, 65 10, 50 30 C 45 35, 55 40, 60 45 C 55 50, 50 50, 45 45 C 40 40, 35 35, 30 30 C 25 25, 25 15, 30 10 Z"
          fill="#9D4EDD" />
    <circle cx="30" cy="10" r="3" fill="#9D4EDD" />
    <line x1="45" y1="50" x2="45" y2="70" stroke="#9D4EDD" stroke-width="3" />
    <line x1="45" y1="70" x2="40" y2="90" stroke="#9D4EDD" stroke-width="3" />
    <line x1="45" y1="70" x2="50" y2="90" stroke="#9D4EDD" stroke-width="3" />
  </g>

  <!-- Texte FLAMINGO -->
  <g font-family="Outfit, sans-serif" font-size="48" font-weight="700">
    <text x="150" y="120" fill="#9D4EDD">F</text>
    <text x="190" y="120" fill="#FFFFFF">L</text>
    <text x="230" y="120" fill="#9D4EDD">A</text>
    <text x="270" y="120" fill="#FFFFFF">M</text>
    <text x="330" y="120" fill="#9D4EDD">I</text>
    <text x="360" y="120" fill="#FFFFFF">N</text>
    <text x="420" y="120" fill="#9D4EDD">G</text>
    <text x="470" y="120" fill="#FFFFFF">O</text>
  </g>

</svg>